<svg width="369" height="47" viewBox="0 0 369 47" fill="none" xmlns="http://www.w3.org/2000/svg">
<path d="M18.6504 21.9473H35.6426V44.1543C32.8887 45.0527 30.291 45.6777 27.8496 46.0293C25.4277 46.4004 22.9473 46.5859 20.4082 46.5859C13.9434 46.5859 9.00195 44.6914 5.58398 40.9023C2.18555 37.0938 0.486328 31.6348 0.486328 24.5254C0.486328 17.6113 2.45898 12.2207 6.4043 8.35352C10.3691 4.48633 15.8574 2.55273 22.8691 2.55273C27.2637 2.55273 31.502 3.43164 35.584 5.18945L32.5664 12.4551C29.4414 10.8926 26.1895 10.1113 22.8105 10.1113C18.8848 10.1113 15.7402 11.4297 13.377 14.0664C11.0137 16.7031 9.83203 20.248 9.83203 24.7012C9.83203 29.3496 10.7793 32.9043 12.6738 35.3652C14.5879 37.8066 17.3613 39.0273 20.9941 39.0273C22.8887 39.0273 24.8125 38.832 26.7656 38.4414V29.5059H18.6504V21.9473ZM65.9648 46L64.2363 41.5469H64.002C62.498 43.4414 60.9453 44.7598 59.3438 45.502C57.7617 46.2246 55.6914 46.5859 53.1328 46.5859C49.9883 46.5859 47.5078 45.6875 45.6914 43.8906C43.8945 42.0938 42.9961 39.5352 42.9961 36.2148C42.9961 32.7383 44.207 30.1797 46.6289 28.5391C49.0703 26.8789 52.7422 25.9609 57.6445 25.7852L63.3281 25.6094V24.1738C63.3281 20.8535 61.6289 19.1934 58.2305 19.1934C55.6133 19.1934 52.5371 19.9844 49.002 21.5664L46.043 15.5312C49.8125 13.5586 53.9922 12.5723 58.582 12.5723C62.9766 12.5723 66.3457 13.5293 68.6895 15.4434C71.0332 17.3574 72.2051 20.2676 72.2051 24.1738V46H65.9648ZM63.3281 30.8242L59.8711 30.9414C57.2734 31.0195 55.3398 31.4883 54.0703 32.3477C52.8008 33.207 52.166 34.5156 52.166 36.2734C52.166 38.793 53.6113 40.0527 56.502 40.0527C58.5723 40.0527 60.2227 39.457 61.4531 38.2656C62.7031 37.0742 63.3281 35.4922 63.3281 33.5195V30.8242ZM99.7148 12.6309C100.926 12.6309 101.932 12.7188 102.732 12.8945L102.059 21.2734C101.336 21.0781 100.457 20.9805 99.4219 20.9805C96.5703 20.9805 94.3438 21.7129 92.7422 23.1777C91.1602 24.6426 90.3691 26.6934 90.3691 29.3301V46H81.4336V13.2461H88.2012L89.5195 18.7539H89.959C90.9746 16.918 92.3418 15.4434 94.0605 14.3301C95.7988 13.1973 97.6836 12.6309 99.7148 12.6309ZM129.48 46L127.752 41.5469H127.518C126.014 43.4414 124.461 44.7598 122.859 45.502C121.277 46.2246 119.207 46.5859 116.648 46.5859C113.504 46.5859 111.023 45.6875 109.207 43.8906C107.41 42.0938 106.512 39.5352 106.512 36.2148C106.512 32.7383 107.723 30.1797 110.145 28.5391C112.586 26.8789 116.258 25.9609 121.16 25.7852L126.844 25.6094V24.1738C126.844 20.8535 125.145 19.1934 121.746 19.1934C119.129 19.1934 116.053 19.9844 112.518 21.5664L109.559 15.5312C113.328 13.5586 117.508 12.5723 122.098 12.5723C126.492 12.5723 129.861 13.5293 132.205 15.4434C134.549 17.3574 135.721 20.2676 135.721 24.1738V46H129.48ZM126.844 30.8242L123.387 30.9414C120.789 31.0195 118.855 31.4883 117.586 32.3477C116.316 33.207 115.682 34.5156 115.682 36.2734C115.682 38.793 117.127 40.0527 120.018 40.0527C122.088 40.0527 123.738 39.457 124.969 38.2656C126.219 37.0742 126.844 35.4922 126.844 33.5195V30.8242ZM174.275 46H165.34V26.8691C165.34 24.5059 164.939 22.7383 164.139 21.5664C163.357 20.375 162.117 19.7793 160.418 19.7793C158.133 19.7793 156.473 20.6191 155.438 22.2988C154.402 23.9785 153.885 26.7422 153.885 30.5898V46H144.949V13.2461H151.775L152.977 17.4355H153.475C154.354 15.9316 155.623 14.7598 157.283 13.9199C158.943 13.0605 160.848 12.6309 162.996 12.6309C167.898 12.6309 171.219 14.2324 172.957 17.4355H173.748C174.627 15.9121 175.916 14.7305 177.615 13.8906C179.334 13.0508 181.268 12.6309 183.416 12.6309C187.127 12.6309 189.93 13.5879 191.824 15.502C193.738 17.3965 194.695 20.4434 194.695 24.6426V46H185.73V26.8691C185.73 24.5059 185.33 22.7383 184.529 21.5664C183.748 20.375 182.508 19.7793 180.809 19.7793C178.621 19.7793 176.98 20.5605 175.887 22.123C174.812 23.6855 174.275 26.166 174.275 29.5645V46Z" fill="#FB983D"/>
<path d="M217.693 39.4668C219.256 39.4668 221.131 39.125 223.318 38.4414V45.0918C221.092 46.0879 218.357 46.5859 215.115 46.5859C211.541 46.5859 208.934 45.6875 207.293 43.8906C205.672 42.0742 204.861 39.3594 204.861 35.7461V19.9551H200.584V16.1758L205.506 13.1875L208.084 6.27344H213.797V13.2461H222.967V19.9551H213.797V35.7461C213.797 37.0156 214.148 37.9531 214.852 38.5586C215.574 39.1641 216.521 39.4668 217.693 39.4668ZM250.77 46L249.041 41.5469H248.807C247.303 43.4414 245.75 44.7598 244.148 45.502C242.566 46.2246 240.496 46.5859 237.938 46.5859C234.793 46.5859 232.312 45.6875 230.496 43.8906C228.699 42.0938 227.801 39.5352 227.801 36.2148C227.801 32.7383 229.012 30.1797 231.434 28.5391C233.875 26.8789 237.547 25.9609 242.449 25.7852L248.133 25.6094V24.1738C248.133 20.8535 246.434 19.1934 243.035 19.1934C240.418 19.1934 237.342 19.9844 233.807 21.5664L230.848 15.5312C234.617 13.5586 238.797 12.5723 243.387 12.5723C247.781 12.5723 251.15 13.5293 253.494 15.4434C255.838 17.3574 257.01 20.2676 257.01 24.1738V46H250.77ZM248.133 30.8242L244.676 30.9414C242.078 31.0195 240.145 31.4883 238.875 32.3477C237.605 33.207 236.971 34.5156 236.971 36.2734C236.971 38.793 238.416 40.0527 241.307 40.0527C243.377 40.0527 245.027 39.457 246.258 38.2656C247.508 37.0742 248.133 35.4922 248.133 33.5195V30.8242ZM276.609 46.5859C272.762 46.5859 269.734 45.0918 267.527 42.1035C265.34 39.1152 264.246 34.9746 264.246 29.6816C264.246 24.3105 265.359 20.1309 267.586 17.1426C269.832 14.1348 272.918 12.6309 276.844 12.6309C280.965 12.6309 284.109 14.2324 286.277 17.4355H286.57C286.121 14.9941 285.896 12.8164 285.896 10.9023V0.414062H294.861V46H288.006L286.277 41.752H285.896C283.865 44.9746 280.77 46.5859 276.609 46.5859ZM279.744 39.4668C282.029 39.4668 283.699 38.8027 284.754 37.4746C285.828 36.1465 286.414 33.8906 286.512 30.707V29.7402C286.512 26.2246 285.965 23.7051 284.871 22.1816C283.797 20.6582 282.039 19.8965 279.598 19.8965C277.605 19.8965 276.053 20.7461 274.939 22.4453C273.846 24.125 273.299 26.5762 273.299 29.7988C273.299 33.0215 273.855 35.4434 274.969 37.0645C276.082 38.666 277.674 39.4668 279.744 39.4668ZM312.791 28.1875L316.688 23.207L325.857 13.2461H335.936L322.928 27.4551L336.727 46H326.414L316.98 32.7285L313.143 35.8047V46H304.207V0.414062H313.143V20.7461L312.674 28.1875H312.791ZM362.215 46L360.486 41.5469H360.252C358.748 43.4414 357.195 44.7598 355.594 45.502C354.012 46.2246 351.941 46.5859 349.383 46.5859C346.238 46.5859 343.758 45.6875 341.941 43.8906C340.145 42.0938 339.246 39.5352 339.246 36.2148C339.246 32.7383 340.457 30.1797 342.879 28.5391C345.32 26.8789 348.992 25.9609 353.895 25.7852L359.578 25.6094V24.1738C359.578 20.8535 357.879 19.1934 354.48 19.1934C351.863 19.1934 348.787 19.9844 345.252 21.5664L342.293 15.5312C346.062 13.5586 350.242 12.5723 354.832 12.5723C359.227 12.5723 362.596 13.5293 364.939 15.4434C367.283 17.3574 368.455 20.2676 368.455 24.1738V46H362.215ZM359.578 30.8242L356.121 30.9414C353.523 31.0195 351.59 31.4883 350.32 32.3477C349.051 33.207 348.416 34.5156 348.416 36.2734C348.416 38.793 349.861 40.0527 352.752 40.0527C354.822 40.0527 356.473 39.457 357.703 38.2656C358.953 37.0742 359.578 35.4922 359.578 33.5195V30.8242Z" fill="#E32D2D"/>
</svg>
